<svg viewBox="0 0 512 512" xmlns="http://www.w3.org/2000/svg"><g id="Layer_2" data-name="Layer 2"><g id="Layer_1_copy_12" data-name="Layer 1 copy 12"><g id="_2" data-name="2"><path d="m330.58 329.53a11.93 11.93 0 0 0 -15.77-6 11.93 11.93 0 0 0 -7 11.61 8.16 8.16 0 0 0 -2.51.68 8.38 8.38 0 0 0 -4.23 11.08l7 15.59a8.37 8.37 0 0 0 13.33 2.74 11.93 11.93 0 0 0 13.14 2.28 11.93 11.93 0 0 0 6-15.77z"/><path d="m389.5 298.07a8.37 8.37 0 0 0 -2.18 1.42 11.91 11.91 0 0 0 -13.32-2.49 11.93 11.93 0 0 0 -6 15.77l9.92 22.23a11.93 11.93 0 0 0 22.81-5.31 8.49 8.49 0 0 0 2.61-.69 8.39 8.39 0 0 0 4.23-11.08l-7-15.6a8.39 8.39 0 0 0 -11.07-4.25z"/><path d="m337.76 326.03h32.97v12.45h-32.97z" transform="matrix(.913 -.409 .409 .913 -104.89 173.9)"/><path d="m256 0c-141.38 0-256 114.62-256 256s114.62 256 256 256 256-114.62 256-256-114.62-256-256-256zm-137.26 225.42c2.79-87.17 48.6-139.42 112.11-139.42s120.15 60.76 120.15 139.42a155.35 155.35 0 0 1 -2.75 29.32 77.87 77.87 0 0 0 -70.62 64.57h-8.44c-2.07-1.33-7.73-5.57-7.73-12.09v-13.12a75.29 75.29 0 0 0 42.08-46.58 24.44 24.44 0 0 0 19.57-30.72 24.55 24.55 0 0 0 -18-17.18 20 20 0 0 0 -11.66-10.35c-16.49-5.6-27.31-12.63-32.28-16.31a4.79 4.79 0 0 0 -7.06 1.5 4.71 4.71 0 0 0 -.56 3c-26.33-15.46-38.55-32.53-42.77-39.61a5.64 5.64 0 0 0 -4.89-2.78 5.73 5.73 0 0 0 -5.39 3.81c-10.47 29.7-24.08 43.84-33.64 50.47a19.85 19.85 0 0 0 -7.69 10.55 24.51 24.51 0 0 0 -17 16.9 24.44 24.44 0 0 0 19.38 30.69 74.66 74.66 0 0 0 46.62 48.35v11.38c0 6.53-5.68 10.77-7.73 12.09h-23.21a70.83 70.83 0 0 0 -22.64 3.7c-24.12-23.69-37.1-58.64-35.85-97.59zm143.35-40.7-4.55-7.5a.8.8 0 0 1 1.16-1.06c5.26 3.89 16.43 11.13 33.4 16.89a16 16 0 0 1 10.9 15.08v16.74c0 38.88-31.22 71-70.1 71.1a70.34 70.34 0 0 1 -70.57-70.34v-19.94a15.85 15.85 0 0 1 6.84-13.05c10.3-7.15 24.39-22 35.13-52.43a1.71 1.71 0 0 1 3.07-.32c4.81 8 19.8 29 53.46 46.21a1 1 0 0 0 1.26-1.38zm-49.89 112.39a74.1 74.1 0 0 0 20.44 2.89h.25a73.16 73.16 0 0 0 24.53-4.3v11.55a17.15 17.15 0 0 0 5.39 12.09h-56a17.15 17.15 0 0 0 5.39-12.09zm94.38-92.88a20.43 20.43 0 0 1 -1.86 39 75.29 75.29 0 0 0 2.28-18.36v-16.74a19.4 19.4 0 0 0 -.42-3.9zm-146.19 38.92a20.45 20.45 0 0 1 -2-38.8v1.34 19.94a73.91 73.91 0 0 0 2 17.52zm63.54 162.85h-101.56a14.37 14.37 0 0 1 -13.89-18l3.83-14.61a67.13 67.13 0 0 1 64.92-50.07h.26l46.44 48.68zm17.75 0h-13.75v-35.61l-44.93-47.08h94a75.57 75.57 0 0 0 -.52 8.94v2.05l-34.85 35.85zm4 0v-34.23l31.18-32.06a77.94 77.94 0 0 0 52.76 66.29zm108.57 0a73.75 73.75 0 1 1 73.75-73.75 73.75 73.75 0 0 1 -73.75 73.75z"/></g></g></g></svg>