<svg fill="none" height="24" viewBox="0 0 24 24" width="24" xmlns="http://www.w3.org/2000/svg"><path clip-rule="evenodd" d="m3.9001 12c0-4.4735 3.62649-8.09999 8.1-8.09999 4.4735 0 8.1 3.62649 8.1 8.09999s-3.6265 8.1-8.1 8.1c-4.47351 0-8.1-3.6265-8.1-8.1zm8.1-9.89999c-5.46762 0-9.9 4.43238-9.9 9.89999 0 5.4676 4.43238 9.9 9.9 9.9 5.4676 0 9.9-4.4324 9.9-9.9 0-5.46761-4.4324-9.89999-9.9-9.89999zm.78 13.86089c0-.5575-.452-1.0095-1.0095-1.0095h-.0393c-.5576 0-1.0095.452-1.0095 1.0095s.4519 1.0095 1.0095 1.0095h.0393c.5575 0 1.0095-.452 1.0095-1.0095zm-4.04062-6.65467c-.1366.51642.30985.96167.84403.96167h.29268c.36561 0 .64841-.30174.74071-.65553.0524-.20977.1311-.38894.236-.53753.1136-.15733.2534-.27969.4195-.36709.1748-.09615.3802-.14422.6162-.14422.3496 0 .6206.09614.8128.28843.2011.19229.3016.48946.3016.89152.0087.23599-.035.43262-.1311.58992-.0874.1574-.2054.3016-.354.4327s-.3103.2622-.4851.3933-.3409.2884-.4982.472c-.1573.1748-.2972.3889-.4195.6424-.1137.2535-.1836.5681-.2098.944 0 .3258.2641.5899.59.5899h.6817c.2752 0 .4982-.223.4982-.4982.035-.2622.118-.4807.2491-.6555.1399-.1748.2972-.3278.472-.4589.1748-.1398.3584-.2753.5506-.4064.2011-.1398.3802-.3059.5376-.4982.166-.1923.3015-.4239.4064-.6948.1136-.271.1704-.61623.1704-1.03577 0-.25347-.0568-.52442-.1704-.81285-.1049-.29717-.2841-.57249-.5375-.82596-.2535-.25347-.59-.46324-1.0095-.62931-.4108-.1748-.9265-.26221-1.5471-.26221-.4807 0-.9177.08304-1.311.2491-.3846.15733-.71674.38021-.99643.66864-.27095.28843-.48509.6293-.64241 1.02262-.04121.10906-.07703.22115-.10748.33627z" fill="#000" fill-rule="evenodd"/></svg>