<svg id="icons" viewBox="0 0 48 48" xmlns="http://www.w3.org/2000/svg"><g fill="#231f20"><path d="m24.35 22h-.7a10.65 10.65 0 0 0 -10.65 10.65v5.35h22v-5.35a10.65 10.65 0 0 0 -10.65-10.65z"/><circle cx="24" cy="16" r="6"/><path d="m36.06 24h-.06a5 5 0 1 0 -5-5c0 4 3.88 4.82 5.4 9.13.06.18.11.36.16.54l.05.2c.08.31.15.63.2 1v.06c.05.31.09.63.12.95s.07.7.07 1.12v6h8v-5.06a8.94 8.94 0 0 0 -8.94-8.94z"/><path d="m12 14a5 5 0 0 0 0 10h-.06a8.94 8.94 0 0 0 -8.94 8.94v5.06h8v-6c0-.42 0-.8.06-1.17s.07-.63.12-.95v-.06c.06-.32.12-.64.2-1l.05-.2c0-.18.11-.36.16-.54 1.53-4.26 5.41-5.08 5.41-9.08a5 5 0 0 0 -5-5z"/></g></svg>