<svg id="Layer_1" enable-background="new 0 0 100 100" viewBox="0 0 100 100" xmlns="http://www.w3.org/2000/svg"><path d="m59.3502769 11.8402662c-.0055313-5.1640124-4.19627-9.3457899-9.3602829-9.3402605-5.1640129.0055289-9.3457909 4.1962709-9.3402634 9.3602829.0055275 5.1601028 4.1901627 9.3402634 9.3502655 9.3402672 5.1656381-.0055237 9.3502847-4.1946506 9.3502808-9.3602896z"/><path d="m14.3007574 80.1309128c0 11.3624878 17.9597406 17.3690872 35.6992388 17.3690872s35.6992455-6.0065994 35.6992455-17.3690872c0-7.9187012-8.6795349-13.2045212-19.9218979-15.697258l-1.1612778 8.6795425c7.8686447 1.8920746 12.3535767 5.0055008 12.3535767 7.0076981 0 3.0033035-10.2412491 8.6394958-26.9696465 8.6394958s-26.9696445-5.5761261-26.9696445-8.6294785c0-2.0022049 4.48493-5.135643 12.3635921-7.0077057l-1.1712875-8.659523c-11.252369 2.4627076-19.9218989 7.74852-19.9218989 15.6672288z"/><path d="m34.98349 35.1114235.2302551 11.7729454c.0290184 1.7097092.9625702 3.2757835 2.4526978 4.114521l2.7830544 1.5717278 3.3536873 25.0875702c.2091255 1.8192673 1.7527084 3.1903839 3.5839424 3.1835022h5.1856995c1.8295097.002327 3.3704987-1.366478 3.5839424-3.1835022l3.3536835-25.0875702 2.7830582-1.5717278c1.4901237-.8387375 2.4236755-2.4048119 2.4526901-4.114521l.2703018-11.7729454c.1105881-6.6724949-5.2088814-12.1712704-11.8813782-12.2818604-.073967-.0012264-.1479492-.0017738-.2219238-.0016403h-5.8264046c-6.6734009-.0119743-12.0929718 5.3881779-12.1049423 12.0615768-.0001336.0739823.0004119.1479569.0016364.2219239z"/></svg>